<?xml version="1.0" standalone="no"?>
<!DOCTYPE svg PUBLIC "-//W3C//DTD SVG 20010904//EN"
 "http://www.w3.org/TR/2001/REC-SVG-20010904/DTD/svg10.dtd">
<svg version="1.0" xmlns="http://www.w3.org/2000/svg"
 width="512.000000pt" height="512.000000pt" viewBox="0 0 512.000000 512.000000"
 preserveAspectRatio="xMidYMid meet">
<metadata>
Created by potrace 1.11, written by Peter Selinger 2001-2013
</metadata>
<g transform="translate(0.000000,512.000000) scale(0.100000,-0.100000)"
fill="#000000" stroke="none">
<path d="M0 2560 l0 -2560 2560 0 2560 0 0 2560 0 2560 -2560 0 -2560 0 0
-2560z m2543 942 c255 -22 458 -80 614 -177 l42 -26 36 56 c51 80 184 215 271
275 96 66 215 121 329 151 77 21 113 24 250 24 150 0 248 -12 284 -34 16 -10
20 9 -61 -304 l-51 -198 -26 6 c-189 49 -382 -4 -509 -139 -71 -77 -107 -142
-132 -242 -53 -207 5 -412 159 -564 160 -159 350 -205 557 -135 42 14 77 24
79 23 1 -3 193 -434 201 -454 6 -15 -91 -57 -196 -86 -73 -20 -109 -23 -260
-23 -202 0 -276 15 -436 90 -122 57 -202 112 -300 207 l-80 78 -23 -31 c-46
-62 -166 -181 -255 -253 -293 -237 -634 -392 -1026 -466 -84 -16 -169 -23
-315 -27 -175 -5 -216 -2 -330 17 -450 76 -745 303 -831 639 -111 431 180 930
741 1272 111 68 298 159 326 159 5 0 9 -125 9 -279 l0 -279 -116 -77 c-232
-155 -403 -358 -448 -532 -31 -117 -16 -175 60 -242 113 -99 273 -150 501
-158 83 -3 163 -3 178 1 l27 7 -6 827 c-4 455 -9 909 -12 1008 l-6 182 29 20
c15 11 152 92 303 181 l275 161 3 -323 2 -323 143 -12z"/>
<path d="M2406 2983 c-4 -4 5 -1017 10 -1022 7 -8 141 75 232 144 121 91 214
187 280 288 68 104 95 175 100 267 4 73 3 76 -32 121 -85 111 -288 190 -519
202 -37 1 -69 2 -71 0z"/>
</g>
</svg>
